<?xml version="1.0" encoding="utf-8"?>
<!-- Generator: Adobe Illustrator 19.2.1, SVG Export Plug-In . SVG Version: 6.00 Build 0)  -->
<svg version="1.1" xmlns="http://www.w3.org/2000/svg" xmlns:xlink="http://www.w3.org/1999/xlink" x="0px" y="0px" width="24px"
	 height="24px" viewBox="0 0 24 24" enable-background="new 0 0 24 24" xml:space="preserve">
<g >
	<g >
		<g>
			<path d="M8.875,7c1.308,0,2.861-0.776,3.322-1.661c0.084-0.162,0.251-0.265,0.434-0.269c0.226,0.014,0.353,0.093,0.444,0.252
				c0.853,1.494,1.755,1.967,3.206,1.687c0.032-0.007,0.543-0.134,1.113-0.275C16.894,3.754,14.666,1.5,12,1.5
				c-2.54,0-4.678,2.049-5.307,4.819C7.596,6.875,8.239,7,8.875,7z"/>
			<path d="M6.527,7.372C6.344,10.156,7.497,12.279,9,13.441v2.206l-4.678,1.671C2.933,17.815,2,19.14,2,20.614V22.5
				C2,22.776,2.224,23,2.5,23h19c0.276,0,0.5-0.224,0.5-0.5v-1.886c0-1.475-0.934-2.8-2.323-3.296L15,15.648v-2.206
				c1.503-1.162,2.594-3.348,2.489-5.704c-0.839,0.294-1.655,0.348-1.948,0.348c-1.194,0-2.134-0.525-2.931-1.635
				C11.756,7.347,10.249,8,8.875,8C8.092,8,7.441,7.859,6.527,7.372z"/>
		</g>
	</g>
	<g >
	</g>
</g>
<g >
	<rect fill="none" width="24" height="24"/>
</g>
</svg>
